<svg xmlns="http://www.w3.org/2000/svg" viewBox="0 0 400 320" width="400" height="320">
  <defs><radialGradient id="moss"><stop offset="0" stop-color="#7FB069"/><stop offset="1" stop-color="#4A8B5C"/></radialGradient></defs>
  <rect width="400" height="320" fill="#EAF2E4"/>
    <circle cx="200" cy="150" r="120" fill="#ffffff" opacity="0.45"/>
    <g transform="translate(190 195) rotate(-8)">
    <path d="M0 0 C 20 -57.74999999999999, 20 -132, 0 -165
             C -20 -132, -20 -57.74999999999999, 0 0 Z" fill="#4A8B5C"/>
    <line x1="0" y1="0" x2="0" y2="-165" stroke="#D9C36A" stroke-width="2" opacity="0.5"/>
  </g>
    <g transform="translate(200 195) rotate(0)">
    <path d="M0 0 C 22 -64.75, 22 -148, 0 -185
             C -22 -148, -22 -64.75, 0 0 Z" fill="#2E5D3B"/>
    <line x1="0" y1="0" x2="0" y2="-185" stroke="#D9C36A" stroke-width="2" opacity="0.5"/>
  </g>
    <g transform="translate(210 195) rotate(8)">
    <path d="M0 0 C 20 -56, 20 -128, 0 -160
             C -20 -128, -20 -56, 0 0 Z" fill="#7FB069"/>
    <line x1="0" y1="0" x2="0" y2="-160" stroke="#D9C36A" stroke-width="2" opacity="0.5"/>
  </g>
    <g transform="translate(175 195) rotate(-18)">
    <path d="M0 0 C 16 -45.5, 16 -104, 0 -130
             C -16 -104, -16 -45.5, 0 0 Z" fill="#4A8B5C"/>
    <line x1="0" y1="0" x2="0" y2="-130" stroke="#D9C36A" stroke-width="2" opacity="0.5"/>
  </g>
    <g transform="translate(225 195) rotate(18)">
    <path d="M0 0 C 16 -45.5, 16 -104, 0 -130
             C -16 -104, -16 -45.5, 0 0 Z" fill="#7FB069"/>
    <line x1="0" y1="0" x2="0" y2="-130" stroke="#D9C36A" stroke-width="2" opacity="0.5"/>
  </g>
    <path d="M135 190 L265 190 L246.8 261.5 L153.2 261.5 Z" fill="#3E4C59"/>
    <rect x="131" y="178" width="138" height="16" rx="4" fill="#2b3640"/>
    <path d="M153.2 261.5 L246.8 261.5 L240.8 269.5 L159.2 269.5 Z" fill="#2b3640" opacity="0.5"/>
</svg>